<?xml version="1.0" encoding="UTF-8" standalone="no"?>
<!-- Created with Inkscape (http://www.inkscape.org/) -->

<svg
   xmlns:dc="http://purl.org/dc/elements/1.1/"
   xmlns:cc="http://creativecommons.org/ns#"
   xmlns:rdf="http://www.w3.org/1999/02/22-rdf-syntax-ns#"
   xmlns:svg="http://www.w3.org/2000/svg"
   xmlns="http://www.w3.org/2000/svg"
   xmlns:sodipodi="http://sodipodi.sourceforge.net/DTD/sodipodi-0.dtd"
   xmlns:inkscape="http://www.inkscape.org/namespaces/inkscape"
   width="1052.3622"
   height="744.09448"
   id="svg3247"
   version="1.1"
   inkscape:version="0.48+devel r9772"
   sodipodi:docname="New document 8">
  <defs
     id="defs3249" />
  <sodipodi:namedview
     id="base"
     pagecolor="#ffffff"
     bordercolor="#666666"
     borderopacity="1.0"
     inkscape:pageopacity="0.0"
     inkscape:pageshadow="2"
     inkscape:zoom="0.93536509"
     inkscape:cx="526.18109"
     inkscape:cy="372.04724"
     inkscape:document-units="px"
     inkscape:current-layer="layer1"
     showgrid="false"
     showguides="true"
     inkscape:guide-bbox="true"
     inkscape:window-width="1440"
     inkscape:window-height="851"
     inkscape:window-x="0"
     inkscape:window-y="1"
     inkscape:window-maximized="1" />
  <metadata
     id="metadata3252">
    <rdf:RDF>
      <cc:Work
         rdf:about="">
        <dc:format>image/svg+xml</dc:format>
        <dc:type
           rdf:resource="http://purl.org/dc/dcmitype/StillImage" />
        <dc:title></dc:title>
      </cc:Work>
    </rdf:RDF>
  </metadata>
  <g
     inkscape:label="Layer 1"
     inkscape:groupmode="layer"
     id="layer1"
     transform="translate(0,-308.2677)">
    <g
       id="g4162"
       transform="matrix(1.2703315,0,0,1.2703315,-109.67364,-278.03767)">
      <path
         inkscape:connector-curvature="0"
         id="path3341"
         d="m 422.15734,811.23847 -100.773,0 100.773,-114.67131 z"
         style="color:#000000;fill:none;stroke:#800080;stroke-width:15;stroke-linecap:butt;stroke-linejoin:miter;stroke-miterlimit:4;stroke-opacity:1;stroke-dasharray:none;stroke-dashoffset:0;marker:none;visibility:visible;display:inline;overflow:visible;enable-background:accumulate" />
      <g
         style="fill:#008080"
         id="g4151">
        <g
           style="fill:#008080"
           id="g4146">
          <path
             d="m 128.60217,717.09018 0,43.40269 19.65113,0 c 7.2724,6e-5 12.89438,-1.88253 16.86593,-5.64776 3.97141,-3.76511 5.95716,-9.1292 5.95723,-16.09227 -7e-5,-6.91133 -1.98582,-12.24962 -5.95723,-16.01489 -3.97155,-3.76508 -9.59353,-5.64767 -16.86593,-5.64777 l -19.65113,0 m -15.62806,-12.84286 35.27919,0 c 12.94595,1.1e-4 22.71993,2.94004 29.32196,8.81979 6.65344,5.82839 9.98021,14.39029 9.9803,25.68573 -9e-5,11.39876 -3.32686,20.01224 -9.9803,25.84046 -6.60203,5.82834 -16.37601,8.74248 -29.32196,8.74243 l -19.65113,0 0,46.41999 -15.62806,0 0,-115.5084"
             style="font-size:158.44689941px;font-style:normal;font-weight:normal;line-height:125%;letter-spacing:0px;word-spacing:0px;fill:#008080;fill-opacity:1;stroke:none;font-family:Sans"
             id="path3348"
             inkscape:connector-curvature="0" />
          <path
             d="m 208.59929,704.24732 15.62806,0 0,115.5084 -15.62806,0 0,-115.5084"
             style="font-size:158.44689941px;font-style:normal;font-weight:normal;line-height:125%;letter-spacing:0px;word-spacing:0px;fill:#008080;fill-opacity:1;stroke:none;font-family:Sans"
             id="path3350"
             inkscape:connector-curvature="0" />
          <path
             d="m 239.31385,704.24732 97.71408,0 0,13.15233 -41.00432,0 0,102.35607 -15.70543,0 0,-102.35607 -41.00433,0 0,-13.15233"
             style="font-size:158.44689941px;font-style:normal;font-weight:normal;line-height:125%;letter-spacing:0px;word-spacing:0px;fill:#008080;fill-opacity:1;stroke:none;font-family:Sans"
             id="path3352"
             inkscape:connector-curvature="0" />
        </g>
        <g
           style="fill:#008080"
           id="g4140">
          <path
             d="m 524.10048,801.03299 0,-31.02403 -25.53099,0 0,-12.84286 41.00432,0 0,49.59202 c -6.0347,4.28096 -12.68823,7.53036 -19.96059,9.7482 -7.27255,2.16626 -15.035,3.2494 -23.28737,3.2494 -18.05226,0 -32.18456,-5.26093 -42.39692,-15.7828 -10.16083,-10.57342 -15.24124,-25.27307 -15.24123,-44.09899 -1e-5,-18.87739 5.0804,-33.57703 15.24123,-44.09899 10.21236,-10.57333 24.34466,-15.86005 42.39692,-15.86016 7.53028,1.1e-4 14.6738,0.92851 21.43057,2.7852 6.80817,1.85691 13.07486,4.59053 18.80009,8.20086 l 0,16.63383 c -5.77681,-4.89979 -11.91456,-8.5876 -18.41326,-11.06343 -6.49888,-2.47563 -13.33293,-3.71349 -20.50216,-3.7136 -14.13236,1.1e-4 -24.75737,3.9458 -31.87506,11.8371 -7.06619,7.89148 -10.59926,19.6512 -10.59923,35.27919 -3e-5,15.57653 3.53304,27.31046 10.59923,35.20183 7.11769,7.89141 17.7427,11.8371 31.87506,11.83709 5.51874,10e-6 10.44442,-0.46418 14.77703,-1.3926 4.33244,-0.97996 8.22656,-2.47571 11.68236,-4.48726"
             style="font-size:158.44689941px;font-style:normal;font-weight:normal;line-height:125%;letter-spacing:0px;word-spacing:0px;fill:#008080;fill-opacity:1;stroke:none;font-family:Sans"
             id="path3356"
             inkscape:connector-curvature="0" />
          <path
             d="m 615.08367,712.60291 c -11.34716,1e-4 -20.37326,4.22947 -27.07833,12.68813 -6.65356,8.45884 -9.98032,19.98645 -9.9803,34.58289 -2e-5,14.54497 3.32674,26.0468 9.9803,34.50553 6.70507,8.45876 15.73117,12.68814 27.07833,12.68813 11.34703,10e-6 20.32155,-4.22937 26.92359,-12.68813 6.65344,-8.45873 9.9802,-19.96056 9.9803,-34.50553 -10e-5,-14.59644 -3.32686,-26.12405 -9.9803,-34.58289 -6.60204,-8.45866 -15.57656,-12.68803 -26.92359,-12.68813 m 0,-12.68813 c 16.19534,1.1e-4 29.14134,5.44156 38.83806,16.32436 9.6965,10.83142 14.54481,25.37634 14.54493,43.63479 -1.2e-4,18.20699 -4.84843,32.75191 -14.54493,43.63479 -9.69672,10.83134 -22.64272,16.247 -38.83806,16.247 -16.24705,0 -29.24463,-5.41566 -38.99279,-16.247 -9.69664,-10.8313 -14.54494,-25.37622 -14.54493,-43.63479 -10e-6,-18.25845 4.84829,-32.80337 14.54493,-43.63479 9.74816,-10.8828 22.74574,-16.32425 38.99279,-16.32436"
             style="font-size:158.44689941px;font-style:normal;font-weight:normal;line-height:125%;letter-spacing:0px;word-spacing:0px;fill:#008080;fill-opacity:1;stroke:none;font-family:Sans"
             id="path3358"
             inkscape:connector-curvature="0" />
          <path
             d="m 747.69012,765.59907 c 3.35248,1.13476 6.60188,3.55892 9.7482,7.27246 3.19774,3.71365 6.39556,8.81984 9.59347,15.3186 l 15.86016,31.56559 -16.78856,0 -14.77703,-29.63142 c -3.81683,-7.73663 -7.53042,-12.86861 -11.1408,-15.39597 -3.55893,-2.52726 -8.43302,-3.79091 -14.6223,-3.79096 l -17.02066,0 0,48.81835 -15.62807,0 0,-115.5084 35.2792,0 c 13.20384,1.1e-4 23.05519,2.75952 29.55406,8.27823 6.49871,5.51892 9.74811,13.84872 9.7482,24.98943 -9e-5,7.27254 -1.70216,13.30713 -5.1062,18.10379 -3.35264,4.79679 -8.25252,8.12356 -14.69967,9.9803 m -39.14752,-48.50889 0,41.00432 19.65113,0 c 7.53029,7e-5 13.20384,-1.72779 17.02066,-5.18356 3.86826,-3.50722 5.80243,-8.6392 5.8025,-15.39596 -7e-5,-6.7566 -1.93424,-11.83701 -5.8025,-15.24123 -3.81682,-3.45561 -9.49037,-5.18347 -17.02066,-5.18357 l -19.65113,0"
             style="font-size:158.44689941px;font-style:normal;font-weight:normal;line-height:125%;letter-spacing:0px;word-spacing:0px;fill:#008080;fill-opacity:1;stroke:none;font-family:Sans"
             id="path3360"
             inkscape:connector-curvature="0" />
          <path
             d="m 835.19182,719.64328 -21.19846,57.48342 42.47429,0 -21.27583,-57.48342 m -8.8198,-15.39596 17.71696,0 44.02163,115.5084 -16.247,0 -10.52186,-29.63142 -52.06776,0 -10.52186,29.63142 -16.4791,0 44.09899,-115.5084"
             style="font-size:158.44689941px;font-style:normal;font-weight:normal;line-height:125%;letter-spacing:0px;word-spacing:0px;fill:#008080;fill-opacity:1;stroke:none;font-family:Sans"
             id="path3362"
             inkscape:connector-curvature="0" />
        </g>
      </g>
    </g>
  </g>
</svg>
